# xmcd
#
# Track frame offsets:
#  150
#  17655
#  34497
#  50374
#  69919
#  86325
#  102401
#  116553
#  133861
#  148157
#  161474
#  173326
#  189872
#  202138
#  221079
#  236880
#  256251
#  277538
#  293954
#  312593
#
# Disc length: 4349 seconds
#
# Revision: 0
# Processed by: cddbd v1.5.2PL0 Copyright (c) Steve Scherf et al.
# Submitted via: AltoMP3_Maker 3.0
#
DISCID=2410fb14
DTITLE=Kenny Rogers - Classic Icons Glen Campbell and Kenny Rogers
DYEAR=1900
DGENRE=
TTITLE0=Lady
TTITLE1=Desperado
TTITLE2=Just The Way You Are
TTITLE3=Coward Of The County
TTITLE4=Lucille
TTITLE5=Green Green Grass Of Home
TTITLE6=The Son Of Hickory Holler's Tramp
TTITLE7=We've Got Tonight
TTITLE8=Daytime Friends
TTITLE9=Puttin' In Overtime At Home
TTITLE10=Blaze Of Glory
TTITLE11=Don't Fall In Love With A Dreamer
TTITLE12=Goodbye Marie
TTITLE13=She Belives In Me
TTITLE14=The Gambler
TTITLE15=Sweet Music Man
TTITLE16=Through The Years
TTITLE17=You Decorated My Life
TTITLE18=You've Lost That Lovin' Feelin'
TTITLE19=Every Time Two Fools Collide
EXTD=
EXTT0=
EXTT1=
EXTT2=
EXTT3=
EXTT4=
EXTT5=
EXTT6=
EXTT7=
EXTT8=
EXTT9=
EXTT10=
EXTT11=
EXTT12=
EXTT13=
EXTT14=
EXTT15=
EXTT16=
EXTT17=
EXTT18=
EXTT19=
PLAYORDER=
